<svg xmlns="http://www.w3.org/2000/svg" style="position:relative" width="210" height="135" xmlns:a="http://ns.adobe.com/AdobeSVGViewerExtensions/3.0/" xmlns:xlink="http://www.w3.org/1999/xlink" version="1.1">
                                <g class="ng-presentation ng-isolate-scope ng-pristine ng-valid" transform="translate(0 55.0929)" ng-model="config" ng-etape="etape" ng-shapes="indexedShapes" ng-preview="">
                                    <g class="logo-preview ng-scope" transform="scale(0.396226)">
                                        <g class="logo-ctn"><g class="logo" id="item-8xa941fz2jrldm1x4mtfmrckav0bowby" transform="translate(0) scale(1.83403)"><polygon fill="#0671b7" points="4.406,34.138 9.556,34.138 9.556,31.63 24.953,16.195 37.506,28.771 38.815,27.433 24.953,13.543" /><path fill="#0671b7" d="M 21.471 30.82 h 2.976 v -2.975 h -2.976 V 30.82 Z M 21.471 26.817 h 2.976 v -2.976 h -2.976 V 26.817 Z M 25.478 23.841 v 2.976 h 2.974 v -2.976 H 25.478 Z M 25.478 30.82 h 2.974 v -2.975 h -2.974 V 30.82 Z" /><polygon fill="#0671b7" points="131.906,34.138 111.358,13.543 97.496,27.433 98.807,28.771 111.358,16.195 126.756,31.63 126.756,34.138" /><polygon fill="#0671b7" points="38.997,34.147 46.304,34.147 46.304,30.587 68.162,8.683 90.025,30.587 90.025,34.147 97.329,34.147 68.162,4.92" /><path fill="#0671b7" d="M 62.81 30.82 h 4.572 v -4.565 H 62.81 V 30.82 Z M 62.81 24.681 h 4.572 v -4.566 H 62.81 V 24.681 Z M 68.954 30.82 h 4.561 v -4.565 h -4.561 V 30.82 Z M 68.954 20.115 v 4.566 h 4.561 v -4.566 H 68.954 Z" /><path fill="#0671b7" d="M 111.866 30.82 h 2.975 v -2.975 h -2.975 V 30.82 Z M 111.866 23.841 v 2.976 h 2.975 v -2.976 H 111.866 Z M 107.861 26.817 h 2.975 v -2.976 h -2.975 V 26.817 Z M 107.861 30.82 h 2.975 v -2.975 h -2.975 V 30.82 Z" /><polygon fill="#094873" points="68.162,2.463 99.232,34.112 101.651,34.112 95.226,27.568 111.354,11.14 133.89,34.112 136.312,34.112 111.354,8.683 83.699,15.825 68.162,0 52.621,15.828 24.959,8.683 0,34.112 2.422,34.112 24.959,11.14 41.092,27.573 34.676,34.112 37.098,34.112" /></g></g><g class="main" transform="translate(270 7.1503)"><g class="formes" /><g class="inline-shape"><g class="contents"><g id="texts"><g class="firstLine" transform="scale(0.656334)"><text class="" id="item-55md985oi8h83o85azq70tnm4034m174" letter-spacing="0px" font-family="Raspoutine" font-size="62px" alignment-baseline="auto" dominant-baseline="auto" fill="#094873" transform="translate(0 56.1)" xml:space="preserve" key="0">Estimation.com</text></g><g class="sndLine" transform="translate(0 49.9313) scale(1)" /><g class="thirdLine" transform="translate(0 48.4797) scale(1)" /><g class="initial" /></g></g></g></g>
                                    </g>
                                
                                </g> 
                        </svg>